<?xml version="1.0" encoding="UTF-8"?>
<svg version="1.1" xmlns="http://www.w3.org/2000/svg" viewBox="0 0 1538 361">
<path d="M0 0 C1.2375 -0.01417969 2.475 -0.02835937 3.75 -0.04296875 C7 0.1875 7 0.1875 10 2.1875 C11.92916899 2.49525517 13.86933285 2.73623484 15.8125 2.9375 C29.79278971 4.92351431 39.36240038 10.7848116 48.28515625 21.2890625 C50.1528123 23.35667261 52.24286757 25.00421452 54.41015625 26.74609375 C60.84452303 32.57970884 65.26843664 39.99413387 69.38623047 47.54077148 C70.76345828 50.06474502 71.95377397 52.14127397 74 54.1875 C78.08118 67.15124824 78.18593483 83.03216695 74.75 96.0703125 C74.00849598 99.15218857 73.76200875 101.96523575 73.625 105.125 C73.30134002 109.64302911 72.21259309 112.06231792 69.3203125 115.5 C67.8580196 117.36896608 67.01185686 119.20504146 66.0625 121.375 C64.17022 125.36640843 61.74924931 126.84421918 58 129.1875 C56.61876037 131.15472008 55.28511874 133.15618328 54 135.1875 C51.75 137.625 51.75 137.625 49 140.1875 C48.505 140.72246094 48.01 141.25742188 47.5 141.80859375 C42.57149377 146.74810111 37.17451685 149.00694879 30.78662109 151.48291016 C24.81410228 153.80159169 19.13259319 156.49844907 13.44140625 159.43530273 C1.73075644 165.46474651 1.73075644 165.46474651 -4.8125 165.8125 C-8.54997666 165.95931968 -8.54997666 165.95931968 -12 167.1875 C-22.86971245 168.33244304 -33.11023585 166.7002193 -43.75 164.5 C-45.58860596 164.13442993 -45.58860596 164.13442993 -47.46435547 163.76147461 C-53.84907834 162.35903201 -57.96614721 161.43316865 -62 156.1875 C-63.18222192 155.2172799 -64.38920271 154.27598877 -65.625 153.375 C-66.30691406 152.86582031 -66.98882812 152.35664063 -67.69140625 151.83203125 C-69.33563724 150.66076011 -71.01472634 149.53778314 -72.71484375 148.44921875 C-79.24099017 144.12531104 -82.88878097 139.99788394 -86.46484375 133.01953125 C-87.88991309 130.15287589 -87.88991309 130.15287589 -89.96484375 127.8984375 C-92.72796871 124.21780655 -94.07247973 120.30377854 -95.625 116 C-96.21650607 114.37973231 -96.8126539 112.76114949 -97.4140625 111.14453125 C-97.6713916 110.43272705 -97.9287207 109.72092285 -98.19384766 108.98754883 C-98.96023785 106.98971114 -98.96023785 106.98971114 -101 105.1875 C-101.93959514 100.56321803 -102.41988665 95.86911651 -103 91.1875 C-103.12632813 90.3728125 -103.25265625 89.558125 -103.3828125 88.71875 C-105.08193308 77.04274189 -103.25968956 68.1332667 -97 58.1875 C-95.48584569 55.43825054 -94.89444177 53.66850536 -94.25 50.5 C-92.11064211 41.64634965 -85.92213723 35.66111592 -79 30.1875 C-78.34515625 29.64738281 -77.6903125 29.10726562 -77.015625 28.55078125 C-70.54873448 23.33593908 -63.61475632 18.81548858 -56.66210938 14.28417969 C-55.29531227 13.38235058 -53.94922552 12.44921074 -52.609375 11.5078125 C-48.29933707 8.54685148 -44.46491187 7.42179691 -39.30859375 6.58203125 C-36.41944678 6.08828532 -33.77173578 5.13106963 -31 4.1875 C-24.90412978 2.50714946 -18.90502592 1.83265022 -12.6015625 1.43359375 C-8.24395352 1.0213875 -4.48772457 0.02337357 0 0 Z " fill="currentColor" transform="translate(202,90.8125)"/>
<path d="M0 0 C2.69336596 1.84501501 4.70348056 3.67747717 6.7734375 6.21484375 C6.7734375 6.87484375 6.7734375 7.53484375 6.7734375 8.21484375 C7.4025 7.67214844 8.0315625 7.12945312 8.6796875 6.5703125 C18.80049497 -1.88909736 26.6306774 -3.9892557 39.78662109 -3.03955078 C46.00833388 -2.24291466 50.84249736 0.9275841 55.1484375 5.33984375 C61.27447818 13.62790884 62.35563951 22.63603396 62.1640625 32.6640625 C62.15840271 33.80269241 62.15274292 34.94132233 62.14691162 36.11445618 C62.12472329 39.71086706 62.07455894 43.30623976 62.0234375 46.90234375 C62.00334988 49.35740737 61.9851031 51.81248679 61.96875 54.26757812 C61.92491589 60.25039312 61.85601032 66.23244312 61.7734375 72.21484375 C55.1734375 72.21484375 48.5734375 72.21484375 41.7734375 72.21484375 C41.73605469 69.08242187 41.69867187 65.95 41.66015625 62.72265625 C41.61383568 59.66106513 41.56264038 56.59959118 41.51098633 53.53808594 C41.47790176 51.42390165 41.44981954 49.30963252 41.42700195 47.1953125 C41.39315142 44.14156216 41.34082205 41.08857781 41.28515625 38.03515625 C41.27876633 37.10244904 41.2723764 36.16974182 41.26579285 35.20877075 C41.12748073 28.91875362 40.27898215 23.03831734 37.7734375 17.21484375 C34.41380554 14.64571343 30.13401166 14.79795849 25.98828125 14.89453125 C21.57770489 15.53239238 18.81401691 18.03073614 15.9609375 21.27734375 C14.01043005 24.45975064 13.63806249 27.13082635 13.56811523 30.77807617 C13.54817001 31.69880417 13.52822479 32.61953217 13.50767517 33.56816101 C13.49096268 34.558871 13.47425018 35.54958099 13.45703125 36.5703125 C13.4258596 38.09547234 13.4258596 38.09547234 13.39405823 39.65144348 C13.32863702 42.90167438 13.26971213 46.15198652 13.2109375 49.40234375 C13.16774523 51.60482613 13.12413071 53.80730028 13.08007812 56.00976562 C12.97216807 61.41137624 12.87303907 66.81304792 12.7734375 72.21484375 C5.8434375 72.21484375 -1.0865625 72.21484375 -8.2265625 72.21484375 C-8.26394531 68.81945312 -8.30132813 65.4240625 -8.33984375 61.92578125 C-8.38608399 58.62932982 -8.43730869 55.3329908 -8.48901367 52.03662109 C-8.52222256 49.74958149 -8.55026701 47.46246072 -8.57299805 45.17529297 C-8.6066176 41.88343797 -8.65893874 38.59232403 -8.71484375 35.30078125 C-8.72123367 34.28180756 -8.7276236 33.26283386 -8.73420715 32.21298218 C-8.84532266 26.82092649 -9.15755576 22.85127109 -12.2265625 18.21484375 C-15.66907113 15.26412207 -18.71544461 14.72456042 -23.23828125 14.9375 C-27.09876382 15.4759956 -29.99266634 16.65374829 -32.44921875 19.76171875 C-36.48132711 26.29402333 -36.39875589 33.29801046 -36.54296875 40.76953125 C-36.56374985 41.67107941 -36.58453094 42.57262756 -36.60594177 43.50149536 C-36.6710083 46.36420515 -36.73012164 49.22700194 -36.7890625 52.08984375 C-36.83228857 54.03776919 -36.87590414 55.98568604 -36.91992188 57.93359375 C-37.02737394 62.69392279 -37.12676569 67.45432351 -37.2265625 72.21484375 C-43.8265625 72.21484375 -50.4265625 72.21484375 -57.2265625 72.21484375 C-57.2265625 47.79484375 -57.2265625 23.37484375 -57.2265625 -1.78515625 C-51.2865625 -1.78515625 -45.3465625 -1.78515625 -39.2265625 -1.78515625 C-38.5665625 0.85484375 -37.9065625 3.49484375 -37.2265625 6.21484375 C-36.71867188 5.73273438 -36.21078125 5.250625 -35.6875 4.75390625 C-34.99914062 4.12226563 -34.31078125 3.490625 -33.6015625 2.83984375 C-32.92867187 2.21335938 -32.25578125 1.586875 -31.5625 0.94140625 C-23.40299111 -5.0895351 -8.73343462 -4.70133166 0 0 Z " fill="currentColor" transform="translate(660.2265625,155.78515625)"/>
<path d="M0 0 C6.6 0 13.2 0 20 0 C20 13.86 20 27.72 20 42 C34.52 42 49.04 42 64 42 C64 28.14 64 14.28 64 0 C70.6 0 77.2 0 84 0 C84 33.66 84 67.32 84 102 C77.4 102 70.8 102 64 102 C64 87.48 64 72.96 64 58 C49.48 58 34.96 58 20 58 C20 72.52 20 87.04 20 102 C13.4 102 6.8 102 0 102 C0 68.34 0 34.68 0 0 Z " fill="currentColor" transform="translate(411,126)"/>
<path d="M0 0 C7.03205892 6.31955956 11.5644117 15.99291726 12.13671875 25.375 C12.44337668 37.97272791 11.30047877 48.53113983 2.8125 58.5 C-4.75223154 66.28086673 -12.19815805 69.54214595 -23.0390625 69.90625 C-32.24741679 69.69742123 -37.96419483 67.17864414 -45.1015625 61.46875 C-45.4315625 74.00875 -45.7615625 86.54875 -46.1015625 99.46875 C-53.0315625 99.46875 -59.9615625 99.46875 -67.1015625 99.46875 C-67.1015625 64.48875 -67.1015625 29.50875 -67.1015625 -6.53125 C-61.1615625 -6.53125 -55.2215625 -6.53125 -49.1015625 -6.53125 C-48.1115625 -3.89125 -47.1215625 -1.25125 -46.1015625 1.46875 C-44.585625 0.0765625 -44.585625 0.0765625 -43.0390625 -1.34375 C-29.91624758 -12.53906896 -13.06256919 -9.51770841 0 0 Z M-42.1015625 15.46875 C-46.63658245 21.73350861 -48.20462749 27.83503885 -47.1015625 35.46875 C-45.78770159 42.45495273 -41.84471745 46.47401521 -36.1015625 50.46875 C-30.39570286 52.37070321 -24.33009512 52.37127212 -18.7890625 49.90625 C-13.7928733 47.07440187 -10.89376301 42.84535152 -9.1015625 37.46875 C-8.4407009 28.77587816 -9.09999005 23.02285992 -13.9140625 15.71875 C-18.17301668 11.33811141 -21.97928922 10.24821991 -27.9765625 9.96875 C-33.85102857 10.15801409 -37.9434244 11.19537482 -42.1015625 15.46875 Z " fill="currentColor" transform="translate(1180.1015625,160.53125)"/>
<path d="M0 0 C6.7483132 5.53498012 9.33311937 11.87348274 10.6875 20.3125 C10.93833951 24.18212298 10.92183705 28.03376188 10.8828125 31.91015625 C10.8799826 32.98502792 10.87715271 34.0598996 10.87423706 35.16734314 C10.86312274 38.57001302 10.83803447 41.97241089 10.8125 45.375 C10.80245889 47.69465763 10.79333503 50.01431943 10.78515625 52.33398438 C10.76321208 57.99359295 10.72874306 63.6530005 10.6875 69.3125 C4.7475 69.3125 -1.1925 69.3125 -7.3125 69.3125 C-7.8075 64.8575 -7.8075 64.8575 -8.3125 60.3125 C-8.9725 60.3125 -9.6325 60.3125 -10.3125 60.3125 C-10.55226563 60.90675781 -10.79203125 61.50101562 -11.0390625 62.11328125 C-12.57386177 64.76387018 -14.12595082 65.84477968 -16.6875 67.5 C-17.45835938 68.00917969 -18.22921875 68.51835937 -19.0234375 69.04296875 C-25.89239503 72.85254417 -35.53225826 72.16755733 -43.0859375 70.81640625 C-49.41298248 68.90533635 -54.22852291 65.53728786 -57.6875 59.8125 C-60.6341528 53.32739802 -60.30262112 45.65415879 -58.3125 38.9375 C-52.82268678 31.73212015 -47.24380287 27.9995644 -38.3125 26.3125 C-33.42815086 25.97867883 -28.58015087 26.02674388 -23.6875 26.125 C-22.39714844 26.13853516 -21.10679688 26.15207031 -19.77734375 26.16601562 C-16.62194972 26.20107556 -13.46745422 26.25021856 -10.3125 26.3125 C-10.59954169 24.8748398 -10.89555954 23.43896999 -11.1953125 22.00390625 C-11.35918457 21.20412354 -11.52305664 20.40434082 -11.69189453 19.58032227 C-12.72958133 15.78839753 -13.97131822 14.3840327 -17.3125 12.3125 C-23.08030846 11.56156649 -29.16377003 11.31197325 -34.3125 14.3125 C-35.3025 16.2925 -36.2925 18.2725 -37.3125 20.3125 C-43.9125 20.3125 -50.5125 20.3125 -57.3125 20.3125 C-56.24559552 11.77726415 -54.71320433 7.11048123 -48.23046875 1.515625 C-45.98926632 -0.07009441 -43.74224037 -1.41127274 -41.3125 -2.6875 C-40.34957031 -3.19796875 -40.34957031 -3.19796875 -39.3671875 -3.71875 C-27.57974785 -8.71107738 -10.46336993 -7.09807165 0 0 Z M-36.3125 41.3125 C-38.00279706 43.95258303 -38.31654808 45.11819206 -38.25 48.3125 C-37.02255636 52.24031966 -35.93193998 53.35197001 -32.3125 55.3125 C-27.72208206 56.15493625 -23.67460532 55.82417971 -19.5 53.6875 C-14.86470719 50.23375242 -12.64633287 47.3653554 -11.7109375 41.61328125 C-11.57945313 40.52402344 -11.44796875 39.43476563 -11.3125 38.3125 C-24.29698725 37.37204199 -24.29698725 37.37204199 -36.3125 41.3125 Z " fill="currentColor" transform="translate(1085.3125,158.6875)"/>
<path d="M0 0 C0.83047852 0.00499512 1.66095703 0.00999023 2.51660156 0.01513672 C11.89001968 0.27904849 20.32230327 3.15706887 27.22265625 9.703125 C36.41769645 20.52081935 36.75 29.95854254 36.75 44.5 C18.93 44.5 1.11 44.5 -17.25 44.5 C-13.84958399 52.7688987 -13.84958399 52.7688987 -8.25 58.5 C-3.62402782 60.04199073 0.91899834 60.01070589 5.75 59.5 C9.66075925 57.51031547 11.32689098 56.13466354 13.75 52.5 C15.90478516 52.15942383 15.90478516 52.15942383 18.5390625 52.20703125 C19.48007812 52.21669922 20.42109375 52.22636719 21.390625 52.23632812 C22.37546875 52.26146484 23.3603125 52.28660156 24.375 52.3125 C25.86386719 52.33280273 25.86386719 52.33280273 27.3828125 52.35351562 C29.83908072 52.38894257 32.29427285 52.43833804 34.75 52.5 C31.77141039 62.57728873 27.34580382 68.76485053 18 74 C8.99848989 78.62934805 -1.68050687 78.8686444 -11.53125 76.81640625 C-21.70118272 73.37405543 -29.53135691 66.9573831 -34.5 57.375 C-39.20558522 47.77097771 -39.02206785 33.31620356 -35.6875 23.3125 C-31.09807092 13.07454281 -23.84748913 6.17332496 -13.54296875 1.8671875 C-9.017092 0.23397071 -4.78213931 -0.03795349 0 0 Z M-13.125 22.3125 C-15.63279928 25.77133982 -15.63279928 25.77133982 -17.25 31.5 C-6.36 31.5 4.53 31.5 15.75 31.5 C14.9432119 24.3445644 14.9432119 24.3445644 10.75 19.5 C2.66781899 15.15956946 -6.67712597 15.06577432 -13.125 22.3125 Z " fill="currentColor" transform="translate(775.25,152.5)"/>
<path d="M0 0 C10.17651772 6.28111075 15.33022784 12.90865228 19.1328125 24.31640625 C19.1328125 29.92640625 19.1328125 35.53640625 19.1328125 41.31640625 C1.3128125 41.31640625 -16.5071875 41.31640625 -34.8671875 41.31640625 C-31.46677149 49.58530495 -31.46677149 49.58530495 -25.8671875 55.31640625 C-21.24121532 56.85839698 -16.69818916 56.82711214 -11.8671875 56.31640625 C-7.95642825 54.32672172 -6.29029652 52.95106979 -3.8671875 49.31640625 C-1.71240234 48.97583008 -1.71240234 48.97583008 0.921875 49.0234375 C1.86289063 49.03310547 2.80390625 49.04277344 3.7734375 49.05273438 C4.75828125 49.07787109 5.743125 49.10300781 6.7578125 49.12890625 C8.24667969 49.14920898 8.24667969 49.14920898 9.765625 49.16992188 C12.22189322 49.20534882 14.67708535 49.25474429 17.1328125 49.31640625 C15.71913756 57.123931 11.15560768 63.11847107 4.99609375 68.03515625 C-4.61695145 74.6453844 -14.48022624 75.29281157 -25.8671875 74.31640625 C-35.73216588 72.26120242 -43.84676844 66.84784986 -49.546875 58.546875 C-55.91758708 47.7845182 -56.42315694 35.96176143 -54.2421875 23.84375 C-51.190813 13.28653912 -44.85638704 5.82834828 -35.359375 0.47265625 C-25.09883858 -4.28771801 -10.33291325 -5.16645663 0 0 Z M-31.8671875 21.31640625 C-34.23698763 24.27018123 -34.23698763 24.27018123 -33.8671875 28.31640625 C-22.9771875 28.31640625 -12.0871875 28.31640625 -0.8671875 28.31640625 C-3.87077097 18.73168407 -3.87077097 18.73168407 -11.3046875 14.06640625 C-19.74729313 11.59539973 -26.26968463 14.91926011 -31.8671875 21.31640625 Z " fill="currentColor" transform="translate(1300.8671875,155.68359375)"/>
<path d="M0 0 C9.66632648 6.39280102 16.66013548 14.28403013 19.69921875 25.5546875 C21.69715333 37.06217118 20.7056061 48.07381212 14.578125 58.08203125 C8.58129223 66.40687281 1.43811592 72.46965437 -8.796875 74.45703125 C-19.76319122 75.673098 -30.34886808 75.17938452 -39.51171875 68.46875 C-44.66533894 64.08703768 -48.85416503 59.56973367 -51.796875 53.45703125 C-52.11398437 52.82925781 -52.43109375 52.20148438 -52.7578125 51.5546875 C-56.49161283 42.63124726 -56.23991861 30.57130307 -53.171875 21.45703125 C-49.46043527 12.90514739 -44.88876297 6.27119245 -36.796875 1.45703125 C-36.11496094 1.04324219 -35.43304687 0.62945312 -34.73046875 0.203125 C-25.09583455 -4.60581415 -9.69251305 -4.79542167 0 0 Z M-28.59765625 19.30078125 C-34.12743266 26.37467183 -34.42186209 32.6049414 -33.796875 41.45703125 C-32.64087892 47.01855568 -30.17875119 50.82328026 -25.796875 54.45703125 C-21.48923962 56.98465201 -17.68261278 57.08531563 -12.796875 56.45703125 C-7.75636524 54.60884434 -5.54811793 52.65139932 -2.859375 48.01953125 C0.38879989 40.76205798 0.44720526 32.60658455 -1.859375 25.01953125 C-3.79676744 20.746404 -6.75683503 17.80025443 -10.796875 15.45703125 C-17.14788573 13.19607143 -23.85520895 14.4451736 -28.59765625 19.30078125 Z " fill="currentColor" transform="translate(566.796875,155.54296875)"/>
<path d="M0 0 C7.4746431 5.80460354 12.45778508 14.34304026 13.92578125 23.6484375 C15.15202935 36.75167938 13.4299256 47.72697032 5.609375 58.6484375 C-0.15586623 65.49716954 -8.13456555 69.78616485 -17.03515625 70.89208984 C-28.8891887 71.87533556 -38.95775388 70.06668313 -48.44921875 62.3984375 C-57.27377849 53.88576449 -61.1021179 44.35481746 -61.44921875 32.1484375 C-61.08929107 19.49098062 -56.96039935 10.13367432 -47.88671875 1.3359375 C-34.27703601 -9.95288874 -14.46037174 -9.42238912 0 0 Z M-35.94921875 16.3984375 C-40.5131481 23.37856473 -41.15452761 31.00178112 -39.609375 39.078125 C-37.99992232 44.73501784 -35.57948873 47.89404585 -31.07421875 51.6484375 C-26.47290338 53.18220929 -21.72642383 53.55318582 -17.0703125 51.96484375 C-11.74318057 49.19197378 -8.94035071 45.24683337 -7.07421875 39.6484375 C-6.40119982 30.34753656 -6.12242248 22.46460057 -12.39453125 15.09765625 C-15.5892103 11.99899214 -18.66823058 10.79236218 -22.9921875 10.51953125 C-28.43016844 10.85621675 -32.03600052 12.6553592 -35.94921875 16.3984375 Z " fill="currentColor" transform="translate(886.07421875,159.3515625)"/>
<path d="M0 0 C7.09966341 5.69624158 10.91245083 13.68827411 12.015625 22.6171875 C12.14732344 26.38602982 12.13197933 30.15113802 12.11328125 33.921875 C12.1118663 35.00099152 12.11045135 36.08010803 12.10899353 37.19192505 C12.10341344 40.62537452 12.09086455 44.05875786 12.078125 47.4921875 C12.07310743 49.82551989 12.06854497 52.1588533 12.06445312 54.4921875 C12.05345052 60.20054617 12.03619956 65.90885563 12.015625 71.6171875 C5.085625 71.6171875 -1.844375 71.6171875 -8.984375 71.6171875 C-9.02175781 68.22179687 -9.05914063 64.82640625 -9.09765625 61.328125 C-9.14389649 58.03167357 -9.19512119 54.73533455 -9.24682617 51.43896484 C-9.28003506 49.15192524 -9.30807951 46.86480447 -9.33081055 44.57763672 C-9.3644301 41.28578172 -9.41675124 37.99466778 -9.47265625 34.703125 C-9.47904617 33.68415131 -9.4854361 32.66517761 -9.49201965 31.61532593 C-9.60283224 26.23796971 -9.88469467 22.2214995 -12.984375 17.6171875 C-17.67833107 14.26436174 -22.39548858 13.74240528 -27.984375 14.6171875 C-31.77871181 15.97700763 -34.41469981 17.85762059 -36.859375 21.1171875 C-38.52776662 24.82472443 -39.10818011 28.05778428 -39.18969727 32.11035156 C-39.20964249 32.99096252 -39.22958771 33.87157349 -39.25013733 34.77886963 C-39.27520607 36.19157135 -39.27520607 36.19157135 -39.30078125 37.6328125 C-39.32156235 38.60377869 -39.34234344 39.57474487 -39.36375427 40.57513428 C-39.42906362 43.67241435 -39.48804823 46.76977818 -39.546875 49.8671875 C-39.59007792 51.96875861 -39.63369278 54.0703213 -39.67773438 56.171875 C-39.78550006 61.32022795 -39.88471213 66.46864579 -39.984375 71.6171875 C-46.584375 71.6171875 -53.184375 71.6171875 -59.984375 71.6171875 C-59.984375 47.1971875 -59.984375 22.7771875 -59.984375 -2.3828125 C-54.044375 -2.3828125 -48.104375 -2.3828125 -41.984375 -2.3828125 C-41.324375 0.5871875 -40.664375 3.5571875 -39.984375 6.6171875 C-39.40429688 6.06289062 -38.82421875 5.50859375 -38.2265625 4.9375 C-37.44539063 4.21304688 -36.66421875 3.48859375 -35.859375 2.7421875 C-35.09367187 2.02289063 -34.32796875 1.30359375 -33.5390625 0.5625 C-24.8909885 -6.02273066 -9.14689759 -5.50680569 0 0 Z " fill="currentColor" transform="translate(1395.984375,156.3828125)"/>
<path d="M0 0 C3.99614139 3.71249044 6.2980653 7.23057324 7.93359375 12.42578125 C7.97440764 14.09194811 7.98192382 15.75981547 7.93359375 17.42578125 C4.82991878 17.57093802 1.72711348 17.65978978 -1.37890625 17.73828125 C-2.25998047 17.78017578 -3.14105469 17.82207031 -4.04882812 17.86523438 C-6.4830326 17.91151203 -8.67879509 17.9088709 -11.06640625 17.42578125 C-12.875 15 -12.875 15 -14.06640625 12.42578125 C-17.88896941 10.66152133 -22.10009878 10.01981113 -26.2421875 10.875 C-28.3772612 11.64559942 -28.3772612 11.64559942 -31.06640625 13.42578125 C-31.39640625 14.41578125 -31.72640625 15.40578125 -32.06640625 16.42578125 C-30.55482855 19.38696092 -29.38446978 20.29906349 -26.2824707 21.53491211 C-25.17605225 21.81729736 -24.06963379 22.09968262 -22.9296875 22.390625 C-21.1034082 22.87885742 -21.1034082 22.87885742 -19.24023438 23.37695312 C-17.96599609 23.70244141 -16.69175781 24.02792969 -15.37890625 24.36328125 C4.85362159 29.54871083 4.85362159 29.54871083 9.43359375 37.11328125 C12.01183301 43.1979259 11.78418737 49.51858174 9.74609375 55.73828125 C6.9161625 62.26284496 1.17122813 66.35013108 -5.06640625 69.42578125 C-15.48918869 73.06487925 -28.55718874 73.1312233 -38.734375 68.69140625 C-44.84597731 65.37455675 -49.89177206 61.77504963 -53.06640625 55.42578125 C-53.72640625 52.12578125 -54.38640625 48.82578125 -55.06640625 45.42578125 C-48.13640625 45.42578125 -41.20640625 45.42578125 -34.06640625 45.42578125 C-33.07640625 47.40578125 -32.08640625 49.38578125 -31.06640625 51.42578125 C-27.13893612 55.1077845 -22.7983999 54.78168699 -17.6875 54.82421875 C-14.6228349 54.35835312 -13.23134307 53.63108985 -11.06640625 51.42578125 C-10.73259811 47.80014311 -10.73259811 47.80014311 -11.06640625 44.42578125 C-16.82236787 41.49547352 -22.29378398 39.83109667 -28.56640625 38.48828125 C-37.61465753 36.50471299 -44.91753636 33.72756424 -51.06640625 26.42578125 C-52.98202524 20.67892427 -53.28287574 13.64614445 -51.125 7.93359375 C-46.56054201 0.35001151 -40.25852277 -2.84784083 -32.06640625 -5.57421875 C-21.56450007 -8.150158 -8.73540045 -6.65475686 0 0 Z " fill="currentColor" transform="translate(1476.06640625,158.57421875)"/>
<path d="M0 0 C4.87773642 4.52602108 8.21909482 10.27466469 9.05859375 16.91015625 C6.7996918 19.1690582 1.71475937 18.23655155 -1.31640625 18.28515625 C-2.19296875 18.32253906 -3.06953125 18.35992187 -3.97265625 18.3984375 C-6.39486843 18.4317707 -8.57041614 18.41291762 -10.94140625 17.91015625 C-12.74609375 15.48046875 -12.74609375 15.48046875 -13.94140625 12.91015625 C-17.77820272 11.13932711 -22.02302715 10.42886679 -26.15234375 11.46484375 C-28.2701642 12.33119367 -28.2701642 12.33119367 -30.94140625 13.91015625 C-30.94140625 15.56015625 -30.94140625 17.21015625 -30.94140625 18.91015625 C-23.90523092 22.77217946 -16.94652265 24.63697457 -9.16210938 26.4453125 C-1.58094538 28.3524573 5.18518494 31.25309049 10.12109375 37.53515625 C12.09786804 44.65154369 12.10052488 51.48191838 9.05859375 58.28515625 C5.23753551 64.97200816 -0.68569537 69.28609638 -8.0625 71.44140625 C-21.39602745 73.61240122 -34.76369568 72.68287836 -45.9609375 64.63671875 C-52.43202458 58.99525822 -52.97186036 54.63606927 -53.94140625 45.91015625 C-47.34140625 45.91015625 -40.74140625 45.91015625 -33.94140625 45.91015625 C-32.62140625 48.22015625 -31.30140625 50.53015625 -29.94140625 52.91015625 C-25.66198652 56.06940067 -20.00672627 55.64339312 -14.94140625 54.91015625 C-11.57835134 52.96876452 -11.57835134 52.96876452 -9.94140625 49.91015625 C-9.60807292 47.24348958 -9.60807292 47.24348958 -10.94140625 44.91015625 C-15.36239003 41.5350911 -20.31859014 40.7169162 -25.62890625 39.53515625 C-35.8186029 37.11183443 -44.74347612 34.9071516 -50.94140625 25.91015625 C-53.28155067 21.22986741 -52.6155716 14.50376051 -51.328125 9.55078125 C-48.36036555 2.80468487 -42.61933133 -1.16807521 -35.94140625 -3.90234375 C-24.80557216 -8.00371122 -9.82902758 -6.74606109 0 0 Z " fill="currentColor" transform="translate(1000.94140625,158.08984375)"/>
<path d="M0 0 C4.29 0.33 8.58 0.66 13 1 C13.33 1.99 13.66 2.98 14 4 C16.45896445 4.99632256 16.45896445 4.99632256 19.375 5.625 C20.84066406 5.98464844 20.84066406 5.98464844 22.3359375 6.3515625 C23.21507812 6.56554687 24.09421875 6.77953125 25 7 C25.99 7.33 26.98 7.66 28 8 C28 8.66 28 9.32 28 10 C29.2375 10.391875 30.475 10.78375 31.75 11.1875 C42.1975418 14.7027136 51.60315295 19.24460166 61 25 C62.6660614 26.00100808 64.3325328 27.00133543 66 28 C65.78087133 31.83475164 65.05971606 32.94164113 62.25 35.6875 C59.39172696 37.7212712 57.22326009 38.7720914 54 40 C52.76868348 40.72297644 51.55269008 41.47229901 50.34765625 42.23828125 C49.63963867 42.6863916 48.93162109 43.13450195 48.20214844 43.59619141 C47.11208496 44.29107666 47.11208496 44.29107666 46 45 C43.27252939 46.73186017 40.54297272 48.46037802 37.8125 50.1875 C36.78479492 50.84395508 36.78479492 50.84395508 35.73632812 51.51367188 C29.65456395 55.3477003 24.16582827 57.33228659 17.0625 58.625 C16.37220703 58.7590625 15.68191406 58.893125 14.97070312 59.03125 C10.92804329 59.78230339 7.10886988 60.14146344 3 60 C2.94465088 59.44538086 2.88930176 58.89076172 2.83227539 58.31933594 C2.57871893 55.7959083 2.32065495 53.27296117 2.0625 50.75 C1.93198242 49.44095703 1.93198242 49.44095703 1.79882812 48.10546875 C1.71181641 47.26113281 1.62480469 46.41679687 1.53515625 45.546875 C1.456604 44.77182617 1.37805176 43.99677734 1.29711914 43.19824219 C1.04983347 41.00517911 1.04983347 41.00517911 0.43969727 38.94702148 C-0.16319437 36.27735974 0.34804799 33.86818898 0.73339844 31.18994141 C1.1794923 27.52559897 1.14725257 23.87427401 1.125 20.1875 C1.12306641 19.40648926 1.12113281 18.62547852 1.11914062 17.82080078 C1.074615 11.83334168 0.68021621 5.95189185 0 0 Z " fill="currentColor" transform="translate(293,149)"/>
<path d="M0 0 C0.79148438 0.03738281 1.58296875 0.07476562 2.3984375 0.11328125 C3.59339844 0.15001953 3.59339844 0.15001953 4.8125 0.1875 C6.7734375 0.42578125 6.7734375 0.42578125 7.7734375 1.42578125 C8.1264098 3.41903658 8.43018624 5.42107804 8.7109375 7.42578125 C9.39714023 12.08687683 10.20078917 16.65585336 11.26953125 21.2421875 C12.73578185 27.59594012 13.88680103 33.96600123 14.7734375 40.42578125 C14.9590625 41.20953125 15.1446875 41.99328125 15.3359375 42.80078125 C15.75364272 45.30701256 15.81676836 47.55474498 15.80078125 50.08984375 C15.7968335 50.90146973 15.79288574 51.7130957 15.78881836 52.54931641 C15.78374268 53.1685498 15.77866699 53.7877832 15.7734375 54.42578125 C15.22405518 54.51142334 14.67467285 54.59706543 14.10864258 54.68530273 C11.60090142 55.07686464 9.09341873 55.47005845 6.5859375 55.86328125 C5.72162109 55.99798828 4.85730469 56.13269531 3.96679688 56.27148438 C3.12568359 56.40361328 2.28457031 56.53574219 1.41796875 56.671875 C0.60537598 56.79933105 -0.2072168 56.92678711 -1.04443359 57.05810547 C-2.75705816 57.34667255 -4.45816894 57.70367376 -6.15234375 58.0859375 C-8.2265625 58.42578125 -8.2265625 58.42578125 -11.2265625 57.42578125 C-13.35157006 57.40573401 -15.47716964 57.43338121 -17.6015625 57.48828125 C-24.6717449 57.53930318 -31.28893103 56.71052782 -38.2265625 55.42578125 C-39.69416016 55.19181641 -39.69416016 55.19181641 -41.19140625 54.953125 C-42.53912109 54.72302734 -42.53912109 54.72302734 -43.9140625 54.48828125 C-45.09548828 54.28912109 -45.09548828 54.28912109 -46.30078125 54.0859375 C-48.2265625 53.42578125 -48.2265625 53.42578125 -50.2265625 50.42578125 C-50.14698491 46.90731478 -49.52167678 45.71017338 -46.96875 43.25 C-46.02257813 42.54488281 -45.07640625 41.83976562 -44.1015625 41.11328125 C-39.79400032 37.76419345 -36.25020452 34.3940868 -32.78125 30.203125 C-31.29952678 28.50919519 -29.79437052 27.1399078 -28.0390625 25.73828125 C-25.3125834 23.49650954 -23.4029904 21.18258992 -21.2265625 18.42578125 C-20.5459375 17.93078125 -19.8653125 17.43578125 -19.1640625 16.92578125 C-17.07052143 15.52383154 -17.07052143 15.52383154 -16.0390625 13.11328125 C-13.70951825 9.65912943 -10.91641037 8.07917305 -7.3828125 5.953125 C-5.11905314 4.53510904 -5.11905314 4.53510904 -3.734375 2.26171875 C-2.2265625 0.42578125 -2.2265625 0.42578125 0 0 Z " fill="currentColor" transform="translate(78.2265625,170.57421875)"/>
<path d="M0 0 C0.08802152 3.9790243 0.14073233 7.95779388 0.1875 11.9375 C0.21263672 13.05447266 0.23777344 14.17144531 0.26367188 15.32226562 C0.32445109 22.23083691 -0.49984179 27.59413033 -3 34 C-3.39762826 35.69874323 -3.76246165 37.40633372 -4.0625 39.125 C-4.55595313 41.91653486 -5.15680868 44.50993687 -5.9921875 47.2265625 C-7.15290222 51.57249436 -7.64144244 55.78312847 -8.0625 60.25 C-8.21704126 61.8388374 -8.37447431 63.42739687 -8.53515625 65.015625 C-8.600979 65.70946289 -8.66680176 66.40330078 -8.73461914 67.11816406 C-9 69 -9 69 -10 72 C-12.125 72.8125 -12.125 72.8125 -15 73 C-18.5432572 70.61372474 -20.54593599 68.69623148 -22.875 65.125 C-24.79591546 62.30012433 -26.34718413 60.75535324 -28.9375 58.625 C-31.72046646 56.30076428 -33.5831517 54.30599104 -35.3125 51.125 C-38.55469745 45.43732256 -43.88093406 41.91284925 -49 38 C-53.8636033 34.280371 -53.8636033 34.280371 -55.125 31.6875 C-54.93241474 27.54691698 -52.85310552 24.91413452 -50 22 C-48.34795544 21.29788106 -46.68076231 20.63028587 -45 20 C-43.8179899 18.55532099 -42.6385593 17.10825826 -41.48486328 15.64086914 C-35.81859071 9.37927461 -28.34112604 6.79255294 -20.375 4.8125 C-18.56915874 4.34427116 -16.76443805 3.87169648 -14.9609375 3.39453125 C-14.11241211 3.17104004 -13.26388672 2.94754883 -12.38964844 2.71728516 C-10.1641225 2.04926358 -8.14481824 1.23611438 -6.0390625 0.26171875 C-3 -1 -3 -1 0 0 Z " fill="currentColor" transform="translate(315,66)"/>
<path d="M0 0 C0.0515625 0.63164062 0.103125 1.26328125 0.15625 1.9140625 C1.01800698 8.71019139 3.32802075 13.81209058 6.82739258 19.59204102 C12.41484018 28.87337732 16.09885908 39.05465082 19.921875 49.16015625 C20.62729747 51.01827993 21.36202587 52.86560511 22.12890625 54.69921875 C23.11176705 57.29520534 23.22949896 59.24601245 23 62 C22.67 62.33 22.34 62.66 22 63 C15.84979553 62.47583485 9.98038239 61.178065 4 59.6875 C3.14921875 59.48705078 2.2984375 59.28660156 1.421875 59.08007812 C-6.10653535 57.2152955 -12.8163588 54.88316947 -18.125 49 C-21.13081373 45.69747504 -24.26849281 43.45054204 -28 41 C-30.0641619 39.36127605 -32.10581968 37.69383925 -34.125 36 C-35.13820312 35.154375 -36.15140625 34.30875 -37.1953125 33.4375 C-39.57136138 31.37252159 -41.81233077 29.26094045 -44 27 C-38.73210334 19.89517107 -34.19009816 14.95574096 -26.16796875 11.1328125 C-23.82959613 9.91096014 -21.72876176 8.50466349 -19.5625 7 C-13.49795314 2.88029058 -7.56515434 -0.77591327 0 0 Z " fill="currentColor" transform="translate(250,248)"/>
<path d="M0 0 C3.71303086 0.13074052 4.97159425 0.97339002 7.71875 3.546875 C8.65736045 4.60446424 9.58420485 5.67259394 10.5 6.75 C11.42597764 7.80826017 12.35305311 8.86556079 13.28125 9.921875 C13.73129395 10.4389502 14.18133789 10.95602539 14.64501953 11.48876953 C16.67220034 13.74971533 18.84598291 15.8606861 21 18 C22.34294481 19.65893182 23.67744688 21.32476605 25 23 C26.65274975 24.72161432 28.36060009 26.32878244 30.125 27.9375 C32 30 32 30 32.4375 32.125 C32.623125 32.74375 32.80875 33.3625 33 34 C35.42383077 35.16953416 35.42383077 35.16953416 38 36 C38.66 36.66 39.32 37.32 40 38 C39.82655411 40.92982916 39.51321635 42.48168969 37.42578125 44.58984375 C31.62848564 48.28682524 25.64708666 50.88770451 19.29296875 53.49609375 C15.70550948 55.13449448 12.95834371 57.07878429 9.921875 59.55078125 C1.97429277 65.54377517 -7.11728156 68.41177994 -17 68 C-17.7879558 43.96734819 -12.34125614 22.13924008 -1 1 C-0.67 0.67 -0.34 0.34 0 0 Z " fill="currentColor" transform="translate(97,227)"/>
<path d="M0 0 C1.29808594 -0.00515625 2.59617188 -0.0103125 3.93359375 -0.015625 C7.34365534 0.23398123 9.49224734 0.85588181 12.5625 2.25 C22.85158811 4.02398071 33.12448422 3.22206018 43.47265625 2.37109375 C46.5625 2.25 46.5625 2.25 48.5625 3.25 C48.86279771 7.27259256 48.33140146 9.08204648 45.875 12.25 C42.50567219 16.97818408 40.63711176 21.87044658 38.73828125 27.33203125 C37.62745107 30.08880915 36.40935387 31.95391141 34.5625 34.25 C34.088125 35.219375 33.61375 36.18875 33.125 37.1875 C31.55949379 40.25589218 29.70684177 42.56957278 27.5625 45.25 C26.54402514 47.24065541 25.54732022 49.24248185 24.5625 51.25 C23.05479779 53.77773793 21.51728084 56.28466598 19.96484375 58.78515625 C18.58157087 61.21647989 17.53790482 63.63180812 16.5625 66.25 C14.9125 65.92 13.2625 65.59 11.5625 65.25 C11.335625 64.26 11.10875 63.27 10.875 62.25 C9.18030249 56.39559043 6.41034215 51.27945902 1.1875 48 C-1.4375 45.25 -1.4375 45.25 -1.41796875 42.62890625 C-1.13390477 40.54488548 -0.84465356 38.46156656 -0.55078125 36.37890625 C-0.36204405 31.16585453 -2.88586348 27.63167321 -5.4375 23.25 C-7.60547456 18.4151446 -8.94532026 13.51010471 -10.0078125 8.328125 C-10.43010997 6.28574086 -10.91889356 4.26983559 -11.4375 2.25 C-7.70375267 -0.14415859 -4.35741516 -0.01727419 0 0 Z " fill="currentColor" transform="translate(153.4375,270.75)"/>
<path d="M0 0 C1.68045607 1.68045607 1.28516903 3.88388273 1.4375 6.1875 C1.7887011 10.4513008 2.51219153 13.97416532 4 18 C6.78716775 28.32764484 8.18770823 38.92470514 7.9375 49.60546875 C8.02415903 52.92559265 9.02778462 55.84030001 10 59 C10.07403678 61.33215844 10.09515886 63.66860788 10 66 C5.9808443 67.12479045 3.85258813 66.88196278 0.0625 65.1875 C-5.54608579 62.72541084 -11.06351232 60.88872727 -17.0625 59.625 C-18.26777344 59.36976562 -19.47304687 59.11453125 -20.71484375 58.8515625 C-23.94902664 58.19368351 -27.19194201 57.60089402 -30.44140625 57.0234375 C-31.38040771 56.85376465 -32.31940918 56.6840918 -33.28686523 56.50927734 C-35.15315317 56.17438903 -37.02115896 55.84891309 -38.89086914 55.53369141 C-39.75446045 55.37819824 -40.61805176 55.22270508 -41.5078125 55.0625 C-42.27754395 54.92972656 -43.04727539 54.79695313 -43.84033203 54.66015625 C-46.36445878 53.8885941 -47.98534479 52.67992834 -50 51 C-48.66439842 47.25234185 -47.0073532 44.3836183 -44.5625 41.25 C-43.66724609 40.08210938 -43.66724609 40.08210938 -42.75390625 38.890625 C-41 37 -41 37 -38 36 C-37.06183667 34.59275501 -36.12921379 33.18127751 -35.234375 31.74609375 C-33.3467376 29.07592312 -31.00811595 26.92727631 -28.66015625 24.6640625 C-26.83973706 22.91107537 -26.83973706 22.91107537 -24.9375 20.3125 C-23 18 -23 18 -20 16.0625 C-16.61055463 13.73225631 -15.18294024 11.45045393 -13 8 C-11.37347684 6.29413425 -9.70993434 4.6222454 -8 3 C-7.505 2.401875 -7.01 1.80375 -6.5 1.1875 C-4.33246476 -0.5284654 -2.6788047 -0.28197944 0 0 Z " fill="currentColor" transform="translate(250,24)"/>
<path d="M0 0 C1.11375 0.1546875 1.11375 0.1546875 2.25 0.3125 C3.75060829 3.52808919 4.43363752 6.46029521 4.9375 9.9375 C5.93580441 15.37181835 8.49603673 19.00597405 11.57421875 23.51171875 C13.75334877 27.15376124 14.68208119 30.69525409 15.63671875 34.80078125 C16.62081527 38.83118927 18.20660397 42.5243752 20.30078125 46.11328125 C21.52674929 48.9536928 21.67413553 51.48257816 21.875 54.5625 C21.94976562 55.64015625 22.02453125 56.7178125 22.1015625 57.828125 C22.15054688 58.64796875 22.19953125 59.4678125 22.25 60.3125 C19.22398394 62.0826037 17.31324016 62.52276771 13.8359375 62.17578125 C12.99732178 62.09497314 12.15870605 62.01416504 11.29467773 61.9309082 C10.41368408 61.8299585 9.53269043 61.72900879 8.625 61.625 C7.72144775 61.52469482 6.81789551 61.42438965 5.88696289 61.32104492 C-5.56828509 59.96065017 -13.19787218 56.84362354 -22.75 50.3125 C-28.23004342 46.59957203 -33.36377297 44.13080075 -39.75 42.3125 C-40.09641359 39.09085361 -39.92731203 37.59996042 -38.203125 34.8046875 C-33.01771661 28.64471655 -27.56600115 23.1653148 -21.55078125 17.828125 C-19.20912336 15.72487858 -16.99567582 13.57653418 -14.8125 11.3125 C-12.33178037 8.77156873 -9.8070935 7.13023127 -6.75 5.3125 C-6.09 4.425625 -5.43 3.53875 -4.75 2.625 C-2.75 0.3125 -2.75 0.3125 0 0 Z " fill="currentColor" transform="translate(292.75,208.6875)"/>
<path d="M0 0 C4.66587334 1.33908472 8.19857728 3.24971615 12.1875 6 C13.21230469 6.70125 14.23710938 7.4025 15.29296875 8.125 C16.18628906 8.74375 17.07960938 9.3625 18 10 C20.87002722 12.26848235 20.87002722 12.26848235 24.375 12.25 C28.29054487 13.06011273 29.3945355 13.99219357 31.6640625 17.234375 C35.01611994 21.66457956 39.37580508 25.35712981 43.4375 29.125 C44.34371094 29.97320312 45.24992187 30.82140625 46.18359375 31.6953125 C48.99644601 33.99709174 51.6965086 35.51123952 55 37 C54.875 40.3125 54.875 40.3125 54 44 C51.25 45.625 51.25 45.625 48 47 C47.195625 47.804375 46.39125 48.60875 45.5625 49.4375 C43.16062342 51.83937658 40.90941638 53.24761018 37.9453125 54.8515625 C31.30627075 58.77099678 25.63027531 64.13860169 20.140625 69.49609375 C17.55907429 71.30977445 16.08881412 71.30780141 13 71 C12.66226563 70.02417969 12.32453125 69.04835938 11.9765625 68.04296875 C11.52626175 66.75773537 11.07572874 65.47258335 10.625 64.1875 C10.40328125 63.54490234 10.1815625 62.90230469 9.953125 62.24023438 C8.8760115 59.18313283 7.80938139 56.71407209 6 54 C5.54516602 51.95385742 5.54516602 51.95385742 5.25390625 49.60546875 C5.0835083 48.3054895 5.0835083 48.3054895 4.90966797 46.97924805 C4.79510254 46.05797119 4.68053711 45.13669434 4.5625 44.1875 C3.56302073 36.64368837 2.29925517 29.29583842 0.62890625 21.87109375 C-0.87714928 14.99562284 -1.46631565 8.03588018 -1 1 C-0.67 0.67 -0.34 0.34 0 0 Z " fill="currentColor" transform="translate(93,47)"/>
<path d="M0 0 C-0.99855569 3.79451163 -2.45038944 6.80364797 -4.5625 10.0625 C-8.44266507 16.28992542 -11.12307164 23.01769851 -13.92797852 29.77563477 C-14.29721436 30.66307373 -14.6664502 31.5505127 -15.046875 32.46484375 C-15.37526367 33.265271 -15.70365234 34.06569824 -16.04199219 34.89038086 C-17 37 -17 37 -19 40 C-19.38499891 41.65549531 -19.72793135 43.3222433 -20 45 C-26.21407952 46.23198526 -29.07345 46.08312542 -34.625 42.625 C-35.21619629 42.2635791 -35.80739258 41.9021582 -36.41650391 41.52978516 C-38.29191849 40.37442677 -40.14581882 39.18907344 -42 38 C-43.24413325 37.22290321 -44.48892097 36.44685321 -45.734375 35.671875 C-51.47289556 32.06975353 -57.09814227 28.35599127 -62.44921875 24.19140625 C-63.91845332 23.06264922 -65.45840533 22.02772978 -67 21 C-69.51329676 17.03580953 -71 13.33320995 -71 8.625 C-67.54100641 4.08507092 -62.43857791 3.79426277 -57 3 C-53.43789529 2.71487956 -49.89628969 2.50581992 -46.32421875 2.40625 C-43.11011012 2.01345647 -40.84953729 1.07702812 -37.93969727 -0.27392578 C-34.14515077 -1.69431361 -30.13577799 -1.85780558 -26.125 -2.1875 C-25.27808594 -2.26935547 -24.43117187 -2.35121094 -23.55859375 -2.43554688 C-7.61463988 -3.88832675 -7.61463988 -3.88832675 0 0 Z " fill="currentColor" transform="translate(106,120)"/>
<path d="M0 0 C3.49167166 0.29097264 4.76200675 0.75539583 7.25 3.3125 C8.79239724 5.68118147 9.59162913 7.24349664 10 10 C10.66 10 11.32 10 12 10 C13.02611949 11.65071396 14.02308143 13.31970006 15 15 C15.47953125 15.43957031 15.9590625 15.87914062 16.453125 16.33203125 C18.44637612 18.4813197 19.22949664 20.65818744 20.3125 23.375 C22.47633667 28.34597612 24.78366524 30.57422801 29 34 C31.92331645 38.6945484 34.28129269 43.47435421 35 49 C34.505 49.99 34.505 49.99 34 51 C31.5078125 51.45703125 31.5078125 51.45703125 28.125 51.8125 C21.89698622 52.6134277 15.94403541 53.89328494 9.875 55.5 C9.05789551 55.71374268 8.24079102 55.92748535 7.39892578 56.14770508 C3.68822209 57.15054575 0.43508255 58.26357488 -3 60 C-5.25390625 60.484375 -5.25390625 60.484375 -7.5625 60.75 C-8.70912109 60.89695312 -8.70912109 60.89695312 -9.87890625 61.046875 C-12 61 -12 61 -15 59 C-16.0319021 54.03270657 -15.0959047 49.54291022 -12.91796875 45.0234375 C-8.83831497 36.03083897 -7.1384601 26.27751548 -5.57055664 16.59912109 C-4.53379619 10.58761475 -2.72900022 5.45468855 0 0 Z " fill="currentColor" transform="translate(165,28)"/>
<path d="M0 0 C6.6 0 13.2 0 20 0 C20 24.42 20 48.84 20 74 C13.4 74 6.8 74 0 74 C0 49.58 0 25.16 0 0 Z " fill="currentColor" transform="translate(1209,154)"/>
<path d="M0 0 C3.07039282 1.82917019 4.56060145 3.26101152 6.375 6.3125 C7.22094728 9.95007329 6.96685978 12.39039015 6 16 C1.07495201 21.80903097 1.07495201 21.80903097 -3.20703125 22.203125 C-12.41389456 22.36876572 -12.41389456 22.36876572 -16 19 C-18.36665555 15.1064699 -19.37195705 12.26363312 -18.5 7.8125 C-17.2973926 3.95818062 -15.48035277 2.12216632 -12 0 C-7.81597182 -1.39467606 -4.27099461 -0.96829228 0 0 Z " fill="currentColor" transform="translate(1225,123)"/>
</svg>
